{"title":"Gang.Related.S01E01.AVI.HDTV.DivX.NLsub.{Th3Sp3cialist}","uid":10798855,"size":443708034,"categoryP":"video","categoryS":"hd___tv_shows","magnet":"?xt=urn:btih:a8756592851116d099bb79e258ba7d040b310042&amp;dn=Gang.Related.S01E01.AVI.HDTV.DivX.NLsub.%7BTh3Sp3cialist%7D&amp;tr=udp%3A%2F%2Ftracker.openbittorrent.com%3A80&amp;tr=udp%3A%2F%2Fopen.demonii.com%3A1337&amp;tr=udp%3A%2F%2Ftracker.coppersurfer.tk%3A6969&amp;tr=udp%3A%2F%2Fexodus.desync.com%3A6969","seeders":3,"leechers":0,"uploader":"HOLLANDmovies","files":-1,"time":1408319905,"description":"General\nComplete name                  : Gang.Related.S01E01.AVI.HDTV.DivX.NLsub.{Th3Sp3cialist}.avi\nFormat                         : AVI\nFormat/Info                    : Audio Video Interleave\nFile size                      : 419 MiB\nDuration                       : 45mn 9s\nOverall bit rate               : 1 296 Kbps\nWriting application            : Lavf52.57.1\n\nVideo\nID                             : 0\nSource                         : Gang Related S01E01 1080p HDTV NL Subs - BBT.mkv\nFormat                         : xvid\nCodec ID                       : xvid\nDuration                       : 45mn 9s\nBit rate                       : 1 156 Kbps\nWidth                          : 640 pixels\nHeight                         : 360 pixels\nDisplay aspect ratio           : 16:9\nFrame rate                     : 23.976 fps\nBits/(Pixel*Frame)             : 0.209\nStream size                    : 373 MiB (89%)\n\nAudio\nID                             : 1\nFormat                         : MPEG Audio\nFormat version                 : Version 1\nFormat profile                 : Layer 3\nMode                           : Joint stereo\nMode extension                 : MS Stereo\nCodec ID                       : 55\nCodec ID/Hint                  : MP3\nDuration                       : 45mn 9s\nBit rate mode                  : Constant\nBit rate                       : 128 Kbps\nChannel(s)                     : 2 channels\nSampling rate                  : 44.1 KHz\nCompression mode               : Lossy\nStream size                    : 41.3 MiB (10%)\nAlignment                      : Aligned on interleaves\nInterleave, duration           : 26 ms (0.63 video frame)\n\n\n &lt;a href=&quot;\nhttp://bayimg.com/fApPAaafN&quot; rel=&quot;nofollow&quot; target=&quot;_NEW&quot;&gt;\nhttp://bayimg.com/fApPAaafN&lt;/a&gt; &lt;a href=&quot;\nhttp://bayimg.com/fAPpcaAFn&quot; rel=&quot;nofollow&quot; target=&quot;_NEW&quot;&gt;\nhttp://bayimg.com/fAPpcaAFn&lt;/a&gt; &lt;a href=&quot;\nhttp://bayimg.com/fAPPdAafn&quot; rel=&quot;nofollow&quot; target=&quot;_NEW&quot;&gt;\nhttp://bayimg.com/fAPPdAafn&lt;/a&gt;","torrent":{"xt":"urn:btih:a8756592851116d099bb79e258ba7d040b310042","amp;dn":"Gang.Related.S01E01.AVI.HDTV.DivX.NLsub.%7BTh3Sp3cialist%7D","amp;tr":["udp%3A%2F%2Ftracker.openbittorrent.com%3A80","udp%3A%2F%2Fopen.demonii.com%3A1337","udp%3A%2F%2Ftracker.coppersurfer.tk%3A6969","udp%3A%2F%2Fexodus.desync.com%3A6969"],"infoHash":"a8756592851116d099bb79e258ba7d040b310042","infoHashBuffer":{"type":"Buffer","data":[168,117,101,146,133,17,22,208,153,187,121,226,88,186,125,4,11,49,0,66]},"announce":[],"urlList":[]}}